<?xml version="1.0" standalone="no"?>
<!DOCTYPE svg PUBLIC "-//W3C//DTD SVG 20010904//EN"
 "http://www.w3.org/TR/2001/REC-SVG-20010904/DTD/svg10.dtd">
<svg version="1.0" xmlns="http://www.w3.org/2000/svg"
 width="150pt" height="70pt" viewBox="0 0 496.000000 503.000000"
 preserveAspectRatio="xMidYMid meet">

<g transform="translate(0.000000,503.000000) scale(0.100000,-0.100000)"
fill="#000000" stroke="none">
<path d="M2280 4544 c-470 -46 -900 -237 -1222 -543 -192 -183 -324 -360 -433
-586 -234 -479 -270 -1018 -103 -1520 208 -625 700 -1102 1337 -1296 446 -136
932 -108 1376 80 452 191 848 581 1043 1026 77 175 132 367 157 551 18 126 20
400 5 524 -43 340 -181 681 -386 957 -80 107 -310 336 -419 416 -254 187 -556
313 -880 368 -117 19 -379 32 -475 23z m425 -40 c282 -38 529 -125 765 -268
332 -201 592 -490 764 -847 124 -258 182 -492 193 -789 32 -854 -480 -1624
-1287 -1936 -90 -34 -274 -83 -400 -106 -117 -21 -520 -18 -635 5 -225 45
-390 99 -568 188 -742 373 -1178 1179 -1082 2001 27 235 82 430 178 631 375
788 1208 1239 2072 1121z"/>
<path d="M2429 4321 c-24 -19 -24 -19 -4 -40 18 -21 18 -27 6 -124 -16 -136
-19 -143 -47 -156 -21 -9 -23 -14 -14 -32 32 -59 226 -77 247 -24 3 9 -2 21
-12 29 -14 10 -17 23 -13 65 3 28 7 53 10 56 6 6 103 -6 117 -15 9 -5 10 -22
4 -56 -6 -37 -14 -51 -31 -59 -46 -20 -18 -65 53 -84 65 -18 139 -14 166 8
l24 20 -22 16 c-27 19 -28 26 -7 161 15 93 20 107 40 116 69 32 -16 88 -136
90 -54 1 -75 -2 -87 -15 -16 -15 -15 -18 5 -40 19 -20 22 -31 16 -66 -7 -45
-15 -48 -96 -35 -33 6 -38 10 -38 35 0 42 16 76 39 82 47 12 2 61 -71 76 -74
16 -123 14 -149 -8z"/>
<path d="M2032 4292 c-111 -36 -169 -117 -159 -222 16 -175 167 -257 327 -176
45 23 90 75 90 105 0 9 -5 23 -10 31 -9 13 -12 13 -21 -3 -14 -24 -62 -47 -99
-47 -42 0 -81 42 -103 110 -21 65 -22 109 -1 138 21 31 41 28 77 -13 51 -58
114 -39 87 26 -25 60 -99 81 -188 51z"/>
<path d="M1485 4064 c-129 -83 -175 -123 -178 -154 -2 -21 3 -26 26 -28 24 -3
39 -20 93 -102 64 -98 74 -126 52 -148 -8 -8 -5 -14 15 -23 21 -9 33 -9 59 1
35 15 241 142 271 168 26 23 23 94 -7 128 -23 28 -24 28 -51 10 -28 -18 -29
-34 -10 -102 5 -16 -2 -26 -35 -48 -23 -15 -43 -26 -44 -24 -17 20 -76 121
-76 128 0 13 26 13 51 -1 27 -14 49 4 49 41 0 32 -41 80 -68 80 -22 0 -44 -22
-41 -42 3 -24 -1 -38 -11 -38 -12 0 -70 84 -70 102 0 7 18 23 39 35 35 20 40
21 52 7 22 -27 62 -42 87 -33 31 12 28 45 -7 80 -45 45 -78 39 -196 -37z"/>
<path d="M3175 4107 c-48 -22 -113 -103 -132 -164 -29 -93 5 -174 100 -235
129 -83 232 -77 311 18 64 77 81 165 47 233 -55 107 -236 189 -326 148z m191
-111 c11 -44 -95 -238 -138 -252 -31 -10 -52 17 -44 59 7 36 97 195 119 209
26 16 56 8 63 -16z"/>
<path d="M932 3328 c-18 -18 -16 -24 30 -125 55 -122 64 -122 146 -7 77 109
75 119 -35 128 -43 4 -89 9 -103 12 -14 2 -31 -1 -38 -8z m118 -19 c47 -5 88
-13 92 -18 10 -9 -99 -161 -116 -161 -12 0 -86 152 -86 178 0 15 4 15 110 1z"/>
<path d="M3830 3329 c-145 -16 -147 -21 -62 -138 77 -108 87 -108 141 9 22 50
41 99 41 109 0 17 -21 33 -38 30 -4 -1 -41 -5 -82 -10z m100 -24 c0 -30 -69
-170 -84 -170 -16 0 -116 130 -116 151 0 8 25 15 68 19 37 4 72 8 77 10 26 9
55 4 55 -10z"/>
<path d="M1585 3301 c-69 -45 -103 -93 -120 -170 -7 -32 -4 -37 76 -115 100
-97 223 -196 339 -274 79 -53 90 -57 160 -63 41 -4 76 -6 77 -5 1 0 -66 61
-149 134 -82 74 -147 136 -145 139 3 3 70 -46 149 -109 79 -62 200 -158 270
-213 70 -55 126 -103 125 -107 -3 -11 -319 -258 -634 -495 -193 -145 -262
-204 -263 -219 0 -18 37 -64 52 -64 4 0 111 86 240 191 449 369 654 529 673
529 8 0 47 -26 87 -58 352 -280 448 -357 621 -499 215 -175 215 -176 254 -117
14 22 14 27 2 38 -8 7 -135 104 -284 216 -333 250 -615 471 -615 480 0 4 12
15 26 25 14 9 80 60 147 114 311 248 391 310 394 307 5 -4 -70 -75 -210 -201
-54 -48 -97 -88 -95 -89 2 -2 35 0 73 3 64 6 77 11 158 65 108 71 281 213 361
294 56 58 58 62 52 99 -16 84 -108 183 -171 183 -49 0 -349 -214 -470 -335
-61 -61 -72 -77 -83 -124 -6 -30 -11 -56 -9 -57 2 -2 75 46 163 107 286 198
252 163 -133 -137 -144 -112 -265 -204 -268 -204 -5 0 -367 279 -522 404 -113
90 -66 67 111 -55 96 -65 177 -119 180 -119 3 0 -2 16 -10 35 -7 19 -14 44
-14 55 0 62 -467 430 -545 430 -11 0 -33 -9 -50 -19z"/>
<path d="M637 2704 c-10 -10 -9 -76 2 -93 7 -11 11 -10 19 4 9 17 14 17 57 5
26 -7 48 -18 50 -24 2 -6 6 -48 10 -93 l6 -82 -52 -27 c-47 -23 -54 -25 -64
-10 -17 23 -25 9 -25 -44 0 -59 8 -67 34 -36 18 22 78 49 353 163 17 7 24 31
17 58 -4 16 -15 25 -37 29 -72 14 -332 115 -347 136 -9 11 -19 18 -23 14z
m275 -150 c75 -25 106 -39 97 -45 -33 -21 -200 -80 -209 -74 -11 7 -14 155 -4
155 4 0 56 -16 116 -36z"/>
<path d="M4088 2695 c-26 -14 -37 -35 -106 -187 -33 -73 -60 -95 -92 -78 -29
16 -40 43 -40 104 0 47 4 57 26 75 15 12 35 21 45 21 23 0 25 32 4 53 -31 31
-76 -2 -94 -68 -32 -116 15 -245 88 -245 48 0 85 40 121 132 57 143 82 170
136 146 63 -29 56 -218 -9 -218 -31 0 -51 -23 -42 -50 5 -17 13 -20 38 -18
103 10 112 300 11 338 -34 13 -54 12 -86 -5z"/>
<path d="M3823 2273 c-14 -5 -103 -276 -103 -311 0 -12 5 -22 10 -22 6 0 10 4
10 9 0 22 38 17 171 -25 154 -48 169 -56 169 -86 0 -17 2 -18 15 -8 22 18 107
292 99 316 -11 30 -35 54 -56 54 -24 0 -23 -32 2 -55 11 -10 20 -26 20 -36 0
-18 -44 -161 -55 -179 -5 -8 -149 31 -162 44 -3 2 5 34 17 70 19 57 25 66 46
66 13 0 24 5 24 11 0 20 -33 38 -67 39 -33 0 -43 -12 -22 -26 14 -8 7 -66 -14
-116 l-16 -37 -52 15 c-88 26 -101 33 -95 49 3 8 17 53 32 100 l26 85 34 -6
c27 -5 35 -2 41 11 11 30 -36 54 -74 38z"/>
<path d="M1038 2193 c-3 -24 -14 -31 -105 -69 -191 -78 -199 -81 -223 -59 -20
18 -20 18 -20 -3 0 -12 19 -69 42 -127 78 -197 175 -265 311 -219 123 42 148
164 75 364 -51 140 -73 172 -80 113z m51 -108 c20 -42 41 -125 41 -167 0 -49
-14 -84 -47 -114 -75 -70 -188 -71 -250 -3 -32 35 -75 127 -77 162 -1 31 0 32
149 93 83 34 155 61 160 60 6 -2 16 -15 24 -31z"/>
<path d="M3620 1766 c-50 -34 -191 -218 -177 -232 3 -3 14 0 25 7 18 11 29 6
98 -44 170 -122 195 -145 188 -172 -10 -39 11 -29 50 24 46 62 49 85 7 60 -15
-10 -27 -5 -74 31 -32 23 -57 45 -57 48 0 3 10 20 22 38 l22 32 111 -5 110 -6
33 34 c17 18 32 39 32 46 0 18 -6 16 -39 -8 -24 -17 -42 -21 -116 -20 -48 0
-89 2 -91 4 -3 3 0 25 7 51 27 108 -61 173 -151 112z m96 -49 c38 -33 35 -75
-11 -144 -20 -30 -42 -56 -50 -59 -21 -8 -125 74 -125 99 0 45 88 127 137 127
12 0 34 -11 49 -23z"/>
<path d="M1240 1753 c0 -7 4 -23 10 -37 8 -21 1 -47 -41 -148 -94 -227 -103
-256 -89 -273 7 -8 20 -15 30 -15 10 0 100 29 200 65 174 62 183 64 211 49 24
-12 29 -12 29 -1 0 17 -84 97 -102 97 -9 0 -9 -3 0 -12 30 -30 13 -45 -100
-86 -62 -22 -136 -49 -165 -61 -29 -11 -54 -17 -57 -13 -2 4 26 81 62 170 61
150 69 163 89 159 36 -7 27 14 -27 68 -27 27 -50 44 -50 38z"/>
<path d="M3345 1458 c-72 -36 -99 -72 -47 -62 25 5 31 -1 95 -104 71 -116 80
-148 52 -202 -40 -77 -180 -126 -235 -82 -24 18 -150 211 -150 228 0 4 7 16
17 26 15 17 15 18 -3 18 -24 0 -114 -56 -114 -71 0 -7 10 -9 24 -5 22 5 31 -4
97 -110 40 -64 83 -123 96 -131 33 -22 127 -13 184 16 88 45 149 123 149 189
0 17 -26 70 -70 140 -38 62 -70 115 -70 119 0 3 7 14 16 24 23 26 4 29 -41 7z"/>
<path d="M1640 1355 c0 -8 5 -15 10 -15 21 0 7 -40 -63 -175 -61 -119 -75
-140 -94 -139 -50 2 -17 -27 103 -91 155 -81 171 -85 210 -52 21 19 26 29 18
37 -8 8 -21 6 -48 -6 l-37 -18 -67 33 c-37 18 -77 39 -90 47 l-22 14 35 69
c19 38 39 72 43 75 5 3 35 -8 66 -25 44 -24 56 -36 56 -55 0 -30 24 -32 44 -2
15 22 22 68 10 68 -3 0 -14 -5 -24 -10 -15 -8 -33 -4 -80 20 -33 17 -60 32
-60 35 0 18 67 135 77 135 7 0 51 -19 98 -42 l85 -42 -6 -37 c-4 -23 -2 -39 5
-44 20 -11 41 15 41 51 0 33 -2 35 -131 100 -167 83 -179 88 -179 69z"/>
<path d="M2731 1174 c-80 -19 -149 -38 -154 -43 -12 -12 -4 -74 11 -79 7 -2
15 9 18 27 7 36 24 48 81 57 l39 6 38 -168 37 -168 -22 -17 c-32 -24 -10 -30
55 -15 66 16 96 36 54 36 -15 0 -29 4 -32 9 -7 11 -76 307 -76 326 0 7 21 18
52 25 50 13 52 12 73 -14 21 -26 45 -35 45 -16 0 6 -7 24 -15 40 -19 37 -22
37 -204 -6z"/>
<path d="M2050 1161 c0 -5 9 -13 20 -16 13 -4 20 -15 20 -33 0 -61 -32 -298
-42 -309 -6 -7 -20 -13 -31 -13 -20 0 -20 -1 -5 -16 18 -18 97 -30 125 -20 15
6 14 9 -10 29 l-27 22 15 130 c8 72 15 131 15 133 1 19 39 -26 140 -163 135
-183 149 -200 160 -188 4 4 15 78 24 163 22 201 22 199 53 211 24 9 25 11 11
26 -20 19 -98 28 -118 13 -13 -9 -12 -13 8 -27 26 -18 26 -30 10 -170 -7 -60
-16 -103 -22 -103 -6 1 -60 69 -121 153 -60 83 -118 159 -127 169 -19 19 -98
26 -98 9z"/>
</g>
</svg>
